<?xml version="1.0" standalone="no"?><!DOCTYPE svg PUBLIC "-//W3C//DTD SVG 1.1//EN" "http://www.w3.org/Graphics/SVG/1.1/DTD/svg11.dtd"><svg t="1642069700848" class="icon" viewBox="0 0 1024 1024" version="1.1" xmlns="http://www.w3.org/2000/svg" p-id="2969" xmlns:xlink="http://www.w3.org/1999/xlink" width="128" height="128"><defs><style type="text/css"></style></defs><path d="M485.47472 499.655742m-450.446863 0a450.446862 450.446862 0 1 0 900.893725 0 450.446862 450.446862 0 1 0-900.893725 0Z" fill="#70C4FF" p-id="2970"></path><path d="M485.47472 967.34921c-257.888503 0-467.693469-209.804965-467.693469-467.69778 0-257.888503 209.809277-467.693469 467.693469-467.693469 257.888503 0 467.693469 209.804965 467.693468 467.693469 0 257.892815-209.804965 467.69778-467.693468 467.69778z m0-900.893724c-238.865497 0-433.200256 194.330448-433.200256 433.200256s194.334759 433.204568 433.200256 433.204567c238.869808 0 433.200256-194.334759 433.200256-433.204567S724.344528 66.455486 485.47472 66.455486z" fill="#6E6E96" p-id="2971"></path><path d="M479.507394 64.153064s-45.069694 254.542662 53.033314 273.104321c98.098696 18.56166 140.533971-7.954997 190.902685 42.42234 50.381649 50.381649 163.575437 32.932395 167.037693-18.56166 0.008623 0-68.930374-257.190016-410.973692-296.965001zM200.690134 837.447772s104.044464 15.823761 199.603597-24.033146c101.207397-42.224004 192.894668-143.444336 141.353185-263.834271-81.059049-189.328932-159.440563-89.156331-131.936538-237.783272s-58.910095-207.864722-119.182672-207.864722-323.304881 392.994105-89.837572 733.515411z" fill="#A3D9FF" opacity=".26" p-id="2972"></path><path d="M178.842995 829.294439s90.273049 14.965743 173.186109-22.726716c87.815407-39.91727 167.361067-135.631623 122.640617-249.454913-70.33166-179.015461-138.33934-84.292788-114.478661-224.822447 23.864991-140.529659-51.114629-196.542325-103.406339-196.542325-52.300333-0.008623-280.511739 371.586755-77.941726 693.546401z" fill="#A3D9FF" opacity=".26" p-id="2973"></path><path d="M196.072355 154.508034c143.060599 21.950618 91.519116 144.155758 131.858928 287.039579 26.176037 92.691885 65.692323 79.148988 101.090983 147.893961 54.063799 71.487183-206.812679 310.22333-346.691279 110.779263-138.649779-342.323576 113.741368-545.712804 113.741368-545.712803z" fill="#9EE3C3" p-id="2974"></path><path d="M220.204669 795.236703c-60.380369 0-112.939401-29.431334-151.99003-85.112002l-1.129652-1.608246-0.737293-1.819517c-74.009499-182.732105-37.929599-326.689527 5.368006-415.27672C118.626469 195.438542 182.555327 143.254623 185.254421 141.077239l5.919898-4.768686 7.515208 1.155522c112.547041 17.268165 119.230101 92.316772 126.969516 179.218109 3.250985 36.519689 6.937447 77.911544 18.872099 120.182976 13.831778 48.988985 30.867114 64.644592 50.592919 82.766463 15.237377 14.004244 32.483983 29.853875 48.600936 60.703743 13.70674 19.342069 12.991006 46.557214-2.082527 76.855189-33.027251 66.390811-127.081618 138.046148-221.437801 138.046148zM97.572675 691.907973c32.600397 45.681948 73.845656 68.839829 122.627682 68.839829 85.73288 0 165.752821-69.064035 190.557753-118.919662 9.145013-18.376259 10.783441-33.67831 4.505675-41.978239l-0.896823-1.185705-0.681241-1.323677c-13.486846-26.193283-27.292754-38.878162-41.904942-52.308956-21.614309-19.855155-43.961599-40.395864-60.453666-98.792873-12.809917-45.375821-16.647287-88.470778-20.031933-126.495233-7.265133-81.580759-11.732004-131.828747-90.070401-146.846229-16.142823 14.663927-63.523563 61.471216-99.167986 134.99781-57.586418 118.794624-59.091185 247.993263-4.484118 384.012935z" fill="#6E6E96" p-id="2975"></path><path d="M523.788055 50.851619s-70.577424 240.534106 84.504059 240.534105c157.573618 0 187.112743 142.64668 285.668475 18.238287-105.092195-253.15431-370.172533-258.772392-370.172534-258.772392z" fill="#9EE3C3" p-id="2976"></path><path d="M817.765082 377.804157h-0.012935c-25.757806-0.004312-48.333614-12.676256-74.479469-27.348806-34.933001-19.600768-74.522586-41.82302-134.980564-41.82302-39.322262 0-69.54694-13.741234-89.837572-40.839964-54.188837-72.371072-12.995318-215.729174-11.214605-221.795668l3.716643-12.667632 13.197966 0.280257c2.837067 0.060363 70.46101 1.862633 151.933978 35.773773 75.449591 31.401758 177.251996 97.426079 233.799306 233.631152l3.889109 9.369219-6.299323 7.950685c-31.48368 39.744804-59.151548 57.470004-89.712534 57.470004z m-280.951527-308.727187c-10.714454 44.560919-23.407956 134.471789 9.270051 178.071209 13.616196 18.160676 33.962879 26.990939 62.208508 26.990939 69.46933 0 115.15559 25.63708 151.86068 46.23384 22.834507 12.809917 40.865834 22.929363 57.603665 22.933675h0.012935c10.981777 0 28.474147-3.983966 56.20669-36.519689-88.427662-199.569104-284.249941-232.441136-337.162529-237.709974z" fill="#6E6E96" p-id="2977"></path><path d="M716.053222 886.660963s-101.504901-162.290565 0-229.897262c101.517836-67.61532 219.86836-63.639977 219.86836-157.103648 0 256.526021-219.86836 387.000909-219.86836 387.00091z" fill="#9EE3C3" p-id="2978"></path><path d="M710.366154 910.086166l-8.933743-14.28019c-1.090848-1.746219-26.934887-43.409708-40.137164-94.416546-18.6134-71.914036-2.983663-126.887594 45.194732-158.979217 37.235423-24.80062 76.273116-40.214774 110.723212-53.818035 66.671068-26.331256 101.461785-42.249874 101.461785-88.927813h34.493212c0 137.752956-62.014484 239.645906-114.038872 300.862734-56.185132 66.119177-111.930475 99.577593-114.276013 100.965945l-14.487149 8.593122z m200.13393-328.565096c-22.312797 16.116954-51.084448 27.482467-80.614949 39.145484-32.850473 12.97376-70.081585 27.676491-104.26867 50.446324-69.775457 46.470981-24.369455 151.175127-3.65628 190.81214 41.228012-29.470138 156.763028-124.287668 188.539899-280.403948z" fill="#6E6E96" p-id="2979"></path><path d="M481.499377 45.233537c-248.773672 0-450.446862 201.67319-450.446862 450.446862 0 248.773672 201.67319 450.451174 450.446862 450.451174 248.773672 0 450.451174-201.668879 450.451174-450.451174-0.004312-248.773672-201.677502-450.446862-450.451174-450.446862z m325.387408 501.630478c-15.901371 55.521137-111.8658 38.365076-149.980799 79.666386-31.009398 33.583454-1.004615 128.582073-42.650857 148.670057-47.919695 23.110452-101.660121 36.062654-158.427326 36.062654-62.868191 0 76.656853-114.689932 25.007579-142.663927-18.371947-9.964227-27.805841 44.892916-36.459325-76.945734-3.177687-44.733385-67.550645-65.485364-109.697039-167.912959-10.589416-25.727625-30.36265-206.873042-38.123623-196.533701-47.725671 63.635665-7.954997 263.066797 37.119008 367.227675 28.491394 65.830296-164.429144 180.252905-164.429144 77.963284 0-202.582949-91.437195-83.266615-78.536733-226.266851 18.113248-200.828107 163.471957-365.110654 365.119277-365.110654 85.068885 0 171.569239 24.468623 233.333648 73.414491 29.207128 23.140634 52.89103 51.761377 68.275003 85.853606 26.999562 59.828477-188.837404 21.377168-169.215078 31.19911 40.025061 20.031933 244.117088 94.468286 222.528649 88.600128-281.641392-76.531815-10.761882 65.08438 10.188433 86.043319 34.945936 34.954559-4.889413 68.744973-14.051673 100.733116z" fill="#6E6E96" opacity=".2" p-id="2980"></path><path d="M90.579176 1014.617846c-21.666049 0-38.317647-5.156735-48.829454-15.672853-28.931182-28.922559-18.647893-100.737427 28.21976-197.02523l31.013709 15.099404c-51.670832 106.152862-42.672416 149.713477-34.846768 157.534813 26.119985 26.128608 239.163001-22.524068 543.229293-326.568801 101.798093-101.802405 187.927645-208.718429 249.066864-309.188534 52.78755-86.750429 83.063967-163.178765 83.063967-209.684239 0-13.86196-2.867248-21.666049-5.549095-24.347896-8.390474-8.394786-45.772493-11.093879-114.345 15.849631l-12.615892-32.104558c73.849968-29.00448 127.594705-31.888975 151.351905-8.131775 10.382457 10.386769 15.651295 26.78398 15.651295 48.73891 0 53.425675-31.285344 134.260518-88.091353 227.616398-62.544818 102.78115-150.429211 211.930609-254.141678 315.647387-166.378011 166.373699-299.875366 250.808772-382.568532 292.351535-65.476741 32.880655-121.29107 49.881497-160.609021 49.885808z" fill="#6E6E96" p-id="2981"></path></svg>