<svg width="1024" height="1024" xmlns="http://www.w3.org/2000/svg" class="icon"><path fill="#FFF" d="M442.754 213.385c35.165 29.57 102.297 133.466 72.727 168.63-29.57 35.165-143.855-10.39-179.02-39.96-35.164-29.57-40.759-82.316-11.188-117.481 29.57-35.964 82.317-40.76 117.481-11.189z"/><path fill="#074370" d="M478.718 402.794c-50.35 0-122.277-32.767-149.45-55.144-19.18-15.984-31.168-38.361-32.767-62.337-2.397-24.775 4.796-48.751 20.78-67.932 17.582-21.578 43.955-33.566 71.128-33.566 21.578 0 42.357 7.193 59.14 21.578 34.366 28.771 110.29 139.06 74.326 182.217-8.792 9.59-23.177 15.184-43.157 15.184zM388.408 199.8c-23.176 0-43.955 10.39-59.14 27.972-27.172 32.767-22.377 80.718 10.39 107.891 24.775 20.78 94.305 51.948 139.06 51.948 15.185 0 25.574-3.197 31.169-10.39 10.39-12.787 5.594-41.558-12.787-79.12-18.382-35.964-43.956-67.133-59.14-80.719-14.386-11.189-31.969-17.582-49.551-17.582z"/><path opacity=".5" fill="#074370" d="M431.565 359.638h-2.397c-51.149-16.783-92.707-51.948-94.305-71.128 0-3.996 3.197-7.992 7.193-8.792 3.996 0 7.992 3.197 7.992 7.193.799 7.992 31.168 39.96 83.116 57.542 3.996 1.599 6.393 5.595 4.795 9.59 0 3.197-2.398 5.595-6.393 5.595z"/><path fill="#FFF" d="M322.875 393.204c43.956-12.787 167.831-9.59 180.618 34.366 12.787 43.955-89.51 113.485-133.466 126.272-43.955 12.788-90.309-12.787-103.895-56.742-13.586-44.755 11.988-91.109 56.743-103.896z"/><path fill="#074370" d="M346.85 567.429c-39.959 0-75.923-27.972-87.112-67.932-7.192-23.976-3.995-49.55 7.193-71.927 11.988-22.378 31.169-38.362 54.346-44.755 15.184-4.796 38.36-7.193 63.136-7.193 26.373 0 113.486 3.197 126.273 47.952 8.791 29.57-21.578 63.136-47.952 85.513-28.77 24.776-66.333 47.153-91.108 54.346-7.992 2.397-15.984 3.996-24.775 3.996zm37.563-175.024c-23.177 0-44.755 2.398-58.341 6.393-19.181 5.595-35.165 19.181-44.755 37.563-9.59 18.381-11.988 39.16-6.394 59.14 9.59 32.767 39.16 55.944 71.928 55.944 7.193 0 14.385-.8 20.779-3.197 19.18-5.594 54.345-25.574 84.715-51.148 31.967-27.173 47.152-51.948 42.357-67.932-6.394-25.574-59.94-36.763-110.289-36.763z"/><path opacity=".5" fill="#074370" d="M344.453 527.469c-28.77 0-41.558-19.18-47.152-27.173-2.398-3.196-1.599-8.79 1.598-11.188 3.197-2.398 7.992-1.599 10.39 1.598 7.992 11.988 27.971 41.558 94.305-2.398 3.196-2.397 7.992-.799 10.39 2.398 2.397 3.996.798 8.791-2.398 11.189-28.771 19.18-50.35 25.574-67.133 25.574z"/><path fill="#FFF" d="M645.75 191.807c0 46.353-37.562 163.835-83.916 163.835S477.92 238.16 477.92 191.807s37.562-83.916 83.915-83.916c46.354.8 83.916 37.563 83.916 83.916z"/><path fill="#FFF" d="M790.404 354.843c-38.361 25.574-156.642 60.739-182.216 23.176-25.575-38.361 50.349-135.064 88.71-161.437 38.362-25.574 90.31-15.984 115.884 22.377 25.574 38.362 15.184 90.31-22.378 115.884z"/><path fill="#FFF" d="M763.232 555.44c-44.755-11.987-147.852-79.919-135.864-123.875 11.988-44.754 135.864-48.75 179.82-36.762 44.754 11.987 70.329 58.34 58.34 103.096-11.987 43.955-58.34 70.329-102.296 57.542z"/><path fill="#FFF" d="M573.023 644.95c-15.984-43.156-23.177-166.232 19.98-183.015 43.157-15.984 119.88 80.719 135.863 123.875s-5.594 91.108-48.75 107.892c-43.157 15.983-91.109-5.595-107.093-48.751z"/><path fill="#FFF" d="M392.405 595.4c15.185-43.955 89.51-142.256 132.666-127.072 43.956 15.185 39.96 138.261 24.775 182.217s-63.136 66.333-106.293 51.149c-43.156-15.185-66.333-63.137-51.148-106.293z"/><path fill="#074370" d="M561.834 363.634c-30.37 0-52.747-37.562-66.333-68.73-15.185-33.567-24.775-75.125-24.775-100.7 0-49.55 40.759-90.309 91.108-90.309 50.35 0 91.908 40.76 91.908 90.31 0 43.156-35.964 169.429-91.908 169.429zm0-243.755c-41.558 0-75.923 33.567-75.923 74.325 0 19.98 7.992 59.14 23.976 95.105 15.984 37.562 35.164 59.14 51.947 59.14s35.165-21.578 51.948-59.14c15.984-35.964 23.976-75.125 23.976-95.105 0-40.758-34.365-74.325-75.924-74.325z"/><path fill="#074370" d="M653.742 402.794c-25.574 0-43.956-7.192-52.747-20.779-16.783-25.574 1.598-65.534 19.98-95.104 19.98-31.968 48.75-64.735 69.53-79.12 15.185-10.39 32.767-15.984 50.35-15.984 29.57 0 57.541 15.185 74.324 40.759 13.587 20.779 18.382 44.755 14.386 69.53-4.795 23.976-17.583 45.554-37.562 59.14-28.771 19.181-93.506 41.558-138.261 41.558zm87.112-195.003c-15.185 0-29.57 4.795-41.558 13.586-16.783 11.189-43.956 40.76-64.735 74.325-21.578 35.165-29.57 63.137-19.98 77.522 7.193 11.189 25.574 13.587 39.96 13.587 45.554 0 105.494-22.378 128.67-39.161 16.784-11.189 27.173-28.771 31.17-48.75 3.995-19.98 0-40.76-11.19-57.543-14.385-20.78-37.562-33.566-62.337-33.566z"/><path fill="#074370" d="M787.207 566.63c-7.992 0-16.783-.8-24.775-3.197-24.775-7.193-63.136-27.972-92.706-51.149-27.173-21.578-57.542-52.747-49.55-81.518 10.39-35.164 75.124-47.951 131.867-47.951 23.177 0 44.755 2.397 59.14 6.393 23.976 6.394 43.157 21.578 55.944 42.357a89.81 89.81 0 0 1 8.791 68.731c-11.189 39.16-47.952 66.334-88.71 66.334zm-35.164-167.032c-51.149 0-109.49 11.188-116.683 35.963-4.795 15.984 11.988 39.161 43.956 64.735 31.169 24.775 67.132 42.358 87.112 47.952 6.394 1.598 13.587 2.398 20.78 2.398 34.365 0 63.935-22.378 73.525-54.346 5.595-19.18 3.197-39.16-7.192-56.743-10.39-17.582-26.374-29.57-45.554-35.164-13.587-3.197-33.567-4.795-55.944-4.795z"/><path fill="#074370" d="M651.344 711.284c-38.361 0-72.727-23.976-86.313-59.94-9.59-24.775-14.385-68.73-12.787-106.293 1.598-35.164 9.59-79.12 37.562-90.309 3.996-1.598 8.791-2.397 13.587-2.397 50.349 0 119.08 94.305 133.465 132.666 17.582 47.952-6.393 101.498-53.546 119.88-9.59 3.995-20.779 6.393-31.968 6.393zm-47.951-242.956c-2.398 0-5.595.8-7.992 1.599-15.185 5.594-25.575 33.566-27.173 75.124-1.598 39.96 4.795 80.719 11.988 99.9 11.189 29.57 39.96 49.55 71.128 49.55 8.791 0 18.382-1.599 27.173-4.795 39.16-15.185 59.14-59.14 43.956-99.1-15.185-39.96-79.92-122.278-119.08-122.278z"/><path fill="#074370" d="M468.328 711.284c-10.389 0-20.779-1.599-30.369-4.795-23.177-7.992-42.357-23.976-53.546-44.755-11.189-21.579-11.988-45.554-3.996-67.932 14.386-37.562 81.518-130.269 133.466-130.269 3.996 0 8.79.8 12.787 1.599 28.77 9.59 38.361 51.148 40.759 84.714 2.397 35.964-1.599 78.322-10.39 101.498-13.586 35.964-48.75 59.94-88.71 59.94zm45.555-232.566c-39.161 0-103.097 81.518-117.482 119.88-6.394 18.38-5.594 38.36 3.197 55.943s24.775 31.169 43.955 37.562c7.992 2.398 16.784 3.996 25.575 3.996 32.767 0 61.538-19.98 72.726-49.55 6.394-18.381 11.988-57.542 9.59-95.104-3.196-39.96-13.586-65.534-29.57-71.129-3.196-.799-5.594-1.598-7.991-1.598z"/><path fill="#FBD000" d="M488.308 417.98a75.124 75.124 0 1 0 150.25 0 75.124 75.124 0 1 0-150.25 0z"/><path fill="#75B600" d="M358.839 684.91c77.522 80.72 66.333 217.382 66.333 217.382s-137.462 7.192-215.783-73.526c-77.522-79.12-65.534-216.582-65.534-216.582s137.462-7.193 214.984 72.726z"/><path fill="#5C8E0D" d="M222.176 779.215c-43.955-50.349-66.333-111.887-78.32-162.236-.8 25.574-2.398 141.457 66.332 212.586 77.522 80.719 215.783 73.526 215.783 73.526v-3.996c-53.546-14.386-142.257-47.952-203.795-119.88z"/><path fill="#F4B10B" d="M563.433 456.34c-35.165 0-64.735-23.975-72.727-56.742-1.598 5.594-2.398 11.988-2.398 18.381 0 41.558 33.567 75.125 75.125 75.125s75.124-33.567 75.124-75.125c0-6.393-.8-12.787-2.397-18.381-7.992 32.767-37.563 56.743-72.727 56.743z"/><path fill="#074370" d="M414.782 911.083c-31.967 0-143.056-5.595-210.188-76.723-79.12-83.116-68.73-221.377-67.932-227.77a7.163 7.163 0 0 1 7.193-7.193h8.791c31.968 0 143.056 5.594 210.189 76.722 78.32 83.117 67.931 221.377 67.931 226.972a7.163 7.163 0 0 1-7.192 7.193c0 .799-3.197.799-8.792.799zM151.847 615.38c-.8 29.57 0 139.86 63.936 206.992 63.136 67.132 167.83 71.928 199 71.928h.799c.799-29.57 0-139.86-63.936-206.992-63.936-67.132-170.229-71.928-199.799-71.928zm411.586-111.887c-46.354 0-83.916-37.562-83.916-83.915s37.562-83.916 83.916-83.916 83.915 37.562 83.915 83.916-37.562 83.915-83.915 83.915zm0-151.847c-37.562 0-67.932 30.37-67.932 67.932s30.37 67.931 67.932 67.931 67.931-30.37 67.931-67.931-30.37-67.932-67.931-67.932z"/><path fill="#074370" d="M456.34 700.894c-3.995-1.598-8.79.8-10.389 4.796-.8 2.397-16.783 51.947-21.578 119.879-3.996 52.747-.8 133.465 29.57 198.2 6.394.8 11.988-.799 18.381 0-66.333-131.068-11.188-311.686-11.188-313.284 1.598-3.197-.8-7.992-4.795-9.59z"/><path opacity=".5" fill="#FFF" d="M379.618 816.778c-3.197 0-6.394-2.398-7.992-5.595-39.96-127.871-191.807-155.843-193.405-156.642-3.996-.8-7.193-4.795-6.394-9.59.8-3.996 4.795-7.193 9.59-6.394 6.394.8 163.036 30.37 206.193 167.032 1.598 3.996-.8 8.791-5.595 10.39-.799.799-1.598.799-2.397.799z"/><path opacity=".5" fill="#074370" d="M660.935 679.316c-51.948 0-68.731-43.956-68.731-44.755-1.599-3.996.799-8.791 4.795-10.39 3.996-1.598 8.791.8 10.39 4.796.799 1.598 15.184 38.361 62.337 33.566 4.795-.8 8.79 2.398 8.79 7.193.8 4.795-2.397 8.79-7.192 9.59h-10.39zm-236.562-39.96c-3.996 0-7.992-3.196-7.992-7.192-3.996-61.539 47.152-108.691 49.55-110.29 3.197-3.196 8.791-3.196 11.988 0 3.197 3.197 3.197 7.993 0 11.19-.8.799-47.952 43.955-44.755 98.3 0 3.996-3.996 7.992-8.791 7.992zm364.433-103.895c-46.354 0-96.703-39.96-99.1-41.558-3.197-2.398-3.996-7.992-1.599-11.189 2.398-3.197 7.992-3.996 11.189-1.598.8.799 61.538 49.55 104.695 35.963 3.996-1.598 8.79.8 9.59 5.595 1.598 3.996-.8 8.79-4.795 9.59-5.595 2.398-12.787 3.197-19.98 3.197zm-99.9-168.63c-3.996 0-7.192-2.398-7.992-6.394-.799-3.996 1.599-8.791 6.394-9.59 21.578-3.996 80.719-20.78 93.506-43.956 2.397-3.996 7.193-5.594 11.189-3.197 3.996 2.398 5.594 7.193 3.196 11.189-18.381 34.365-95.903 50.35-104.694 51.948h-1.599zM527.47 287.71c-3.197 0-5.594-1.6-7.193-4.796-14.385-31.968-16.783-72.727-16.783-74.325 0-4.795 3.197-8.791 7.193-8.791s7.992 3.197 7.992 7.193c0 0 3.197 39.96 15.984 68.73 1.598 3.996 0 8.792-3.996 11.19-.8.798-1.599.798-3.197.798z"/></svg>